<svg xmlns="http://www.w3.org/2000/svg" fill="none" viewBox="0 0 38 12"><path fill="url(#a)" d="M33.722.63h-7.136c.416 2.356 2.702 4.573 5.196 4.573h5.682c.07-.208.07-.554.07-.762 0-2.078-1.733-3.81-3.812-3.81Z"/><path fill="#4FAD50" d="M27.207 5.619v5.75h3.464V8.321h3.049c1.663 0 3.118-1.178 3.603-2.702H27.207ZM15.016.63V11.3h3.048s.762 0 1.178-.762c2.079-4.088 2.702-5.335 2.702-5.335h.416V11.3h3.464V.63h-3.048s-.762.07-1.178.763c-1.732 3.533-2.702 5.335-2.702 5.335h-.416V.63h-3.464ZM.465 11.37V.7h3.464s.97 0 1.524 1.524C6.84 6.243 6.978 6.797 6.978 6.797s.277-.97 1.524-4.573C9.056.7 10.026.7 10.026.7h3.465v10.67h-3.465V5.619h-.415l-1.94 5.75H6.146l-1.94-5.75h-.415v5.75H.465Z"/><defs><linearGradient id="a" x1="26.574" x2="37.508" y1="2.95" y2="2.95" gradientUnits="userSpaceOnUse"><stop stop-color="#27B1E6"/><stop offset="1" stop-color="#148ACA"/></linearGradient></defs></svg>