<svg xmlns="http://www.w3.org/2000/svg" style="display: none;">
  <symbol id="icon-cart" viewBox="0 0 40 40" fill="none">
    <path stroke-width="1.4" d="M12.45 17.06c0-.71.58-1.3 1.3-1.3h12.92c.72 0 1.3.59 1.3 1.3v11.4H12.45v-11.4Zm4-1.53v-3.7a1 1 0 0 1 1-1h5.52a1 1 0 0 1 1 1v3.7" />
  </symbol>
  <symbol id="icon-catalog" viewBox="0 0 16 16" fill="none">
    <path stroke-width="1.4" d="M1.5 1.5h5v5h-5zm8 0h5v5h-5zm-8 8h5v5h-5zm8 0h5v5h-5z" />
  </symbol>
  <symbol id="icon-copy" viewBox="0 0 20 20" fill="none">
    <path stroke-linecap="round" d="M7.219 3.104h7.783v9.339H7.219z" />
    <path stroke-linecap="square" d="M7.034 5.556H4.766v9.34h7.783V12.79" />
  </symbol>
  <symbol id="icon-down" viewBox="0 0 16 16" fill="none">
    <path stroke-width="1.6" d="M12.24 6.74 8 11 3.76 6.74" />
  </symbol>
  <symbol id="icon-download" viewBox="0 0 20 20" fill="none">
    <path stroke-width="1.4" d="M6.17 7.83 10.33 12m0 0 4.17-4.17M10.33 12V2m8.34 10v3.33A1.67 1.67 0 0 1 17 17H3.67A1.67 1.67 0 0 1 2 15.33V12" />
  </symbol>
  <symbol id="icon-dzen" viewBox="0 0 16 16" stroke="none">
    <path fill-rule="evenodd" clip-rule="evenodd"
      d="M7.88 15c.0118.3138.0228.6449.0341.9947L7.9143 16a249.4274 249.4274 0 0 1-1.0006-.0016c-2.7662-.0131-4.7051-.1291-5.7594-1.1527C.134 13.795.0155 11.7789.0018 9.0862L.001 8.9148C0 8.6449 0 8.3685 0 8.0858h.0055c.3498.0108.6808.0214.9945.033 1.5852.0582 2.7305.1415 3.6354.3969.7282.2054 1.3008.5223 1.8217 1.0272.5048.5208.8208 1.0932 1.0255 1.8212.2545.905.3372 2.0504.3973 3.6359Zm-2.13-4.7499c-.4759-.4572-1.0107-.72-1.8676-.8844-.7272-.1395-1.636-.1997-2.8803-.2461.0064 1.1586.0326 2.1456.1384 2.9761.1365 1.0707.3859 1.6904.7211 2.0429.3564.3394.9556.5859 2.0034.721.8255.1065 1.8178.1323 3.014.1385-.0479-1.2446-.1079-2.1534-.247-2.8811-.1638-.8576-.4256-1.3918-.882-1.8669Zm2.7657 1.1145c-.2554.9049-.3387 2.0502-.397 3.6354a164.8448 164.8448 0 0 0-.033 1 249.4578 249.4578 0 0 0 1.0005-.0016c2.7662-.0131 4.7052-.1291 5.7595-1.1527 1.0202-1.0507 1.1388-3.0667 1.1525-5.7594l.0008-.1715c.0009-.2699.001-.5463.001-.829h-.0055c-.3498.0114-.6808.0224-.9945.0343-1.5834.06-2.7278.1426-3.6323.3963-.7297.2047-1.3031.5208-1.8248 1.0265-.505.5209-.8218 1.0935-1.0272 1.8217Zm1.7344-1.1145c-.4572.4758-.72 1.0106-.8844 1.8675-.1395.7272-.1997 1.636-.2461 2.8805 1.1968-.0062 2.1896-.032 3.0154-.1385 1.0478-.1351 1.647-.3816 2.0034-.721.3353-.3525.5846-.9722.721-2.0429.1058-.8302.1321-1.8167.1385-2.9747-1.2445.0479-2.1532.1079-2.8809.247-.8576.1638-1.3918.4256-1.8669.8821Zm1.1176-2.7665c.9045.2537 2.0489.3363 3.6323.3963.3137.012.6447.023.9945.0342L16 7.9143c0-.2828-.0001-.5592-.001-.829a95.3533 95.3533 0 0 0-.0008-.1716c-.0137-2.6927-.1323-4.7087-1.1525-5.7594C13.7914.1307 11.8524.0147 9.0862.0016A214.0341 214.0341 0 0 0 8.0857 0l.0002.0053c.0107.3498.0213.6809.0328.9947.0584 1.5873.1418 2.7335.398 3.639.2054.7265.5221 1.298 1.0262 1.8181.5217.5057 1.0951.8218 1.8248 1.0265Zm-1.1176-1.7337c.4751.4565 1.0093.7183 1.8669.8822.7277.139 1.6364.199 2.8809.2469-.0064-1.158-.0327-2.1445-.1385-2.9747-.1364-1.0707-.3857-1.6904-.721-2.0429-.3564-.3394-.9556-.586-2.0034-.721-.8258-.1065-1.8186-.1323-3.0154-.1385.0465 1.2445.1066 2.1533.246 2.8805.1644.8569.4273 1.3917.8845 1.8675ZM7.4833 4.639c.2562-.9055.3396-2.0517.398-3.639.0115-.3138.0221-.6449.0328-.9947L7.9143 0a254.0329 254.0329 0 0 0-1.0005.0017c-2.7623.013-4.7054.1292-5.7595 1.1526C.134 2.205.0155 4.221.0018 6.9137 0 7.2377 0 7.5713 0 7.9143l.0053-.0002C.355 7.9028.6862 7.8918 1 7.88c1.5855-.0601 2.7309-.1428 3.6359-.3973.728-.2047 1.3004-.5207 1.8212-1.0255.5041-.52.8208-1.0916 1.0262-1.818ZM5.75 5.75c.4572-.4759.72-1.0107.8844-1.8676.1395-.7272.1997-1.636.2461-2.8805-1.1947.0062-2.1873.032-3.0133.1385-1.049.1352-1.6493.3819-2.0055.721-.3352.3525-.5846.9722-.721 2.0429-.1058.8301-.132 1.8167-.1385 2.9747 1.2445-.0479 2.1532-.1079 2.881-.247.8575-.1638 1.3917-.4256 1.8668-.882Z" />
    <path fill-rule="evenodd" clip-rule="evenodd"
      d="M16 8.0857v-.1714l-.0053-.0002c-2.1173-.0683-3.5464-.1266-4.6306-.4315-.728-.2047-1.3004-.5207-1.8212-1.0255-.505-.521-.8218-1.0935-1.0272-1.8217-.306-1.084-.365-2.513-.4298-4.6299L8.0857 0h-.1714L7.914.0053c-.0683 2.1173-.1266 3.5464-.4315 4.6306-.2047.728-.5207 1.3004-1.0255 1.8212-.521.505-1.0935.8218-1.8217 1.0273-1.084.3058-2.513.3648-4.6299.4297L0 7.9143v.1714l.0053.0002c2.1173.0683 3.5464.1266 4.6306.4315.728.2048 1.3004.5207 1.8212 1.0255.505.5209.8218 1.0935 1.0273 1.8217.3058 1.084.3648 2.5129.4297 4.6299L7.9143 16h.1714l.0002-.0053c.0683-2.1173.1266-3.5464.4315-4.6306.2048-.728.5207-1.3004 1.0255-1.8212.5209-.505 1.0935-.8218 1.8217-1.0272 1.084-.306 2.5129-.365 4.6299-.4298L16 8.0857Zm-6.031-.086c-.3998-.214-.7704-.4836-1.122-.8245l-.0113-.0109-.011-.0112c-.3407-.3517-.6105-.7222-.825-1.122-.214.3997-.4836.7703-.8245 1.122l-.0109.0112-.0112.011c-.3517.3407-.7222.6105-1.122.825.3997.214.7703.4836 1.122.8245l.0112.0109.011.0112c.3407.3517.6105.7222.825 1.122.214-.3997.4836-.7703.8245-1.122l.0109-.0112.0112-.011c.3517-.3407.7222-.6105 1.122-.825Z" />
  </symbol>
  <symbol id="icon-facebook" viewBox="0 0 11 21" stroke="none">
    <path d="M9.832 10.564H6.988v10.42h-4.31v-10.42H.629V6.902h2.05v-2.37c0-1.695.806-4.348 4.348-4.348l3.193.013v3.555H7.902c-.38 0-.914.19-.914.998v2.155h3.221l-.377 3.66Z" />
  </symbol>
  <symbol id="icon-field" viewBox="0 0 24 24" stroke="none">
    <path
      d="M2.6674 20.8598h18.6652c1.7755 0 2.6674-.8833 2.6674-2.6335V7.1233c0-1.7503-.8919-2.634-2.6674-2.634H2.6674C.9004 4.4888 0 5.364 0 7.1233v11.1034c0 1.7503.9004 2.6331 2.6674 2.6331Zm.0257-1.3671c-.8494 0-1.3251-.4586-1.3251-1.3423v-1.2317h2.3871c1.257 0 1.9963-.7393 1.9963-1.9967v-4.503c0-1.2575-.7393-1.9963-1.9963-1.9963H1.368V7.1905c0-.8751.4757-1.3337 1.3251-1.3337h8.5972v2.8629c-1.8943.306-3.3214 1.9457-3.3214 3.9506 0 2.0048 1.4271 3.6445 3.3214 3.9591v2.8629l-8.5972.0004Zm13.287-6.822c-.0171-1.9963-1.4185-3.6107-3.3214-3.942V5.8573h8.6482c.8408 0 1.3251.4585 1.3251 1.3337v1.2317h-2.3871c-1.2575 0-1.9963.7393-1.9963 1.9967v4.5026c0 1.2574.7388 1.9963 1.9963 1.9963h2.3871v1.2321c0 .8833-.4843 1.3423-1.3251 1.3423h-8.6486V16.629c1.9114-.3232 3.3471-1.9543 3.3218-3.9592m4.29 2.88c-.4161 0-.654-.2378-.654-.654v-4.4515c0-.4162.2379-.654.654-.654h2.3619v5.76l-2.3619-.0005ZM3.7299 9.7903c.4165 0 .6544.2378.6544.654v4.452c0 .4157-.2379.654-.6544.654H1.3684v-5.76H3.73Zm5.4711 2.8714a2.7471 2.7471 0 0 1 2.0901-2.676v5.3691c-1.1892-.306-2.0901-1.4014-2.0901-2.6931Zm5.5479 0c-.0172 1.2913-.9009 2.3871-2.0902 2.6931V9.9943c1.1979.3055 2.0983 1.3842 2.0902 2.6674Z" />
  </symbol>
  <symbol id="icon-file" viewBox="0 0 128 128" stroke="none">
    <path
      d="M95.2 80.3c0-.5-.5-1.1-1-1.6-1.2-1.2-4-1.9-8.2-2-2.8 0-6.3.3-9.9.8-1.6-1-3.3-2-4.6-3.2a33.6 33.6 0 0 1-8.3-12.9l.3-1.3s2-11.2 1.5-15c0-.6-.1-.7-.3-1.1l-.1-.5C64 42.3 63 41 61.3 41h-1c-1.9 0-3.4 1-3.8 2.4-1.2 4.4 0 11 2.3 19.7l-.5 1.3c-1.7 4-3.7 8-5.5 11.4l-.2.5-5.1 9.4-1.6.9-3.5 1.9c-5.4 3.2-9 6.9-9.6 9.8-.2 1 0 2.1.9 2.7l1.5.8c.7.3 1.4.5 2.1.5 3.9 0 8.4-4.9 14.6-15.7 7.1-2.3 15.3-4.2 22.4-5.3 5.4 3 12.1 5.2 16.3 5.2.8 0 1.4 0 2-.2.7-.2 1.4-.7 1.8-1.3a7 7 0 0 0 .8-4.7zm-58.7 19c.7-1.9 3.5-5.7 7.6-9.1l1.5-1.4c-4.3 7-7.2 9.7-9.1 10.5zM61 43c1.2 0 1.9 3.1 2 6 0 3-.7 5-1.5 6.6-.7-2.3-1-5.8-1-8.2 0 0-.1-4.4.5-4.4zm-7.4 40.1A92.1 92.1 0 0 0 61 68a34 34 0 0 0 9 10.7A99 99 0 0 0 53.7 83zm39.5-.3c-.4.2-1.5.4-2.2.4-2.3 0-5-1-9-2.8l4.1-.1c2.3 0 3 0 5.2.5 2.2.6 2.3 1.8 1.9 2z" />
    <path d="M104 80a24 24 0 1 0 0 48 24 24 0 0 0 0-48zm10.9 17-.1.2-8.3 11.4a3 3 0 0 1-5 0L93 97a3 3 0 0 1 2.6-4.5h4.3V86a3 3 0 0 1 3-3h2a3 3 0 0 1 3 3v6.5h4.3a3 3 0 0 1 2.6 4.5z" />
    <path
      d="M111 44.2 71.9 5a10 10 0 0 0-7.2-3H24a10 10 0 0 0-10 10v104a10 10 0 0 0 10 10h60l-4-4H24a6 6 0 0 1-6-6V12a6 6 0 0 1 6-6h40.7a6 6 0 0 1 4.2 1.8L108.2 47a6 6 0 0 1 1.8 4.2V73l4 4V51.3c0-2.7-1-5.2-3-7z" />
  </symbol>
  <symbol id="icon-hospital" viewBox="0 0 24 24" fill="none">
    <path stroke-linecap="round" stroke-linejoin="round" stroke-width="1.5"
      d="M12 5.79v4.14m2.07 4.14H9.93m4.14 4.14H9.93m4.14-10.35H9.93M18.2 12h2.08a2.07 2.07 0 0 1 2.07 2.07v6.21a2.07 2.07 0 0 1-2.07 2.07H3.72a2.07 2.07 0 0 1-2.07-2.07v-9.32A2.07 2.07 0 0 1 3.72 8.9h2.07" />
    <path stroke-linecap="round" stroke-linejoin="round" stroke-width="1.5" d="M18.2 22.35V3.72a2.07 2.07 0 0 0-2.06-2.07H7.86a2.07 2.07 0 0 0-2.07 2.07v18.63" />
  </symbol>
  <symbol id="icon-hotel" viewBox="0 0 24 24" fill="none">
    <path stroke-linecap="round" stroke-linejoin="round" stroke-width="1.5"
      d="M3 7v11c0 1.89 0 2.83.59 3.41C4.17 22 5.1 22 7 22h10c1.89 0 2.83 0 3.41-.59.59-.58.59-1.52.59-3.41V7m-4 0A5 5 0 0 0 7 7" />
    <path stroke-linecap="round" stroke-linejoin="round" stroke-width="1.5"
      d="M14 22v-4a2 2 0 0 0-4 0v4M9 3H4.47c-.3 0-.62.08-.87.33C2.86 4.06 2.43 5.29 2 7h5m8-4h4.53c.3 0 .62.08.87.33.74.73 1.17 1.96 1.6 3.67h-5M6 11h.5M6 14.5h.5m11-3.5h.5m-.5 3.5h.5M10.5 8v1.5m0 0V11m0-1.5h3m0-1.5v1.5m0 0V11" />
  </symbol>
  <symbol id="icon-instagram" viewBox="0 0 20 20" stroke="none">
    <path fill-rule="evenodd" clip-rule="evenodd"
      d="M6.02969.68213h7.46671c3.0927 0 5.6 2.5072 5.6 5.6v7.46667c0 3.0928-2.5073 5.6-5.6 5.6H6.02969c-3.0928 0-5.6-2.5072-5.6-5.6V6.28213c0-3.0928 2.5072-5.6 5.6-5.6Zm0 1.86667c-2.06187 0-3.73334 1.67147-3.73334 3.73333v7.46667c0 2.0619 1.67147 3.7333 3.73334 3.7333h7.46671c2.0618 0 3.7333-1.6714 3.7333-3.7333V6.28213c0-2.06186-1.6715-3.73333-3.7333-3.73333H6.02969Zm3.73333 12.1333c-2.57733 0-4.66667-2.0893-4.66667-4.6666 0-2.57737 2.08934-4.6667 4.66667-4.6667 2.57738 0 4.66668 2.08933 4.66668 4.6667 0 2.5773-2.0893 4.6666-4.66668 4.6666Zm0-1.8666c1.54638 0 2.79998-1.2536 2.79998-2.8 0-1.54643-1.2536-2.80004-2.79998-2.80004-1.5464 0-2.8 1.25361-2.8 2.80004 0 1.5464 1.2536 2.8 2.8 2.8Zm4.66668-6.53337c-.5155 0-.9333-.41787-.9333-.93333 0-.51547.4178-.93334.9333-.93334.5155 0 .9333.41787.9333.93334 0 .51546-.4178.93333-.9333.93333Z" />
  </symbol>
  <symbol id="icon-logo" viewBox="0 0 160 40" stroke="none">
    <path fill="var(--logo-icon-main-color)"
      d="M16.39 9.03v17.54h-2.53V12.92h-.05l-5.4 6.78h-.42l-5.4-6.78h-.05v13.65H.03V9.03h2.36l5.82 7.2 5.84-7.2h2.34Zm12.44-.1 7.85 17.65H34.1l-2.33-5.18H24.3l-2.2 5.18h-2.58l7.54-17.65h1.77Zm-.92 3.85-2.62 6.36h5.45l-2.83-6.36Zm11.85-3.75h5.49c.96 0 1.78.13 2.49.4a4.32 4.32 0 0 1 2.76 2.69 5.74 5.74 0 0 1-.03 3.88 4.1 4.1 0 0 1-1.08 1.56c-.53.47-1.16.82-1.84 1.04-.85.27-1.74.4-2.64.38h-2.63v7.59h-2.52V9.03Zm2.53 2.26v5.44h2.85c.47 0 .89-.06 1.27-.19a2.42 2.42 0 0 0 1.6-1.41 3.4 3.4 0 0 0 .08-2.12c-.1-.32-.27-.62-.5-.86a2.5 2.5 0 0 0-.92-.62 3.72 3.72 0 0 0-1.42-.24h-2.97Zm25.84 15.29h-3.37l-7.22-8.89v8.89h-2.86V9.05h2.86v8.49l7.1-8.5h3.14l-7.07 8.47 7.42 9.07ZM81.24 9.03v2.26h-7.43v5.3h7.18v2.27h-7.18v5.45h7.67v2.26H71.3V9.03h9.95Zm17.37 0v2.26h-6.07v15.28h-2.52V11.3h-6.07V9.03H98.6Zm18.52 0v17.54h-2.52V11.3h-9.83v15.28h-2.52V9.03h14.87Zm4.4 8.78a8.98 8.98 0 0 1 2.58-6.33 8.98 8.98 0 0 1 2.97-1.96c1.15-.48 2.45-.72 3.87-.72s2.76.24 3.92.72a8.59 8.59 0 0 1 4.86 4.82 9.14 9.14 0 0 1-1.85 9.73 9 9 0 0 1-2.99 1.99c-1.27.51-2.62.76-3.99.74a9.52 9.52 0 0 1-4.98-1.27 8.65 8.65 0 0 1-4.1-5.4 9.2 9.2 0 0 1-.29-2.32Zm2.6 0a6.8 6.8 0 0 0 1.94 4.78 6.4 6.4 0 0 0 2.16 1.4c.83.33 1.74.5 2.72.5.98 0 1.89-.17 2.72-.5a6.52 6.52 0 0 0 3.6-3.53c.34-.81.5-1.7.5-2.65a6.45 6.45 0 0 0-4.1-6.2 7.26 7.26 0 0 0-2.72-.5c-.98 0-1.89.17-2.72.5a6.37 6.37 0 0 0-3.59 3.51 6.85 6.85 0 0 0-.51 2.69Zm28.02-8.88L160 26.58h-2.58l-6.19-14.23-5.82 14.23h-2.57l7.54-17.65h1.77ZM.93 35.53a1.7 1.7 0 0 1-.68-.65 1.8 1.8 0 0 1-.25-.95 1.76 1.76 0 0 1 .93-1.59c.29-.16.61-.24.98-.24.36 0 .7.08.98.24.28.15.52.37.68.65a1.89 1.89 0 0 1 0 1.89c-.16.28-.39.5-.68.66-.3.15-.62.23-.98.23-.37 0-.7-.08-.98-.23Zm1.74-.79c.2-.2.3-.47.3-.81 0-.34-.1-.6-.3-.81-.2-.2-.46-.31-.76-.31a1 1 0 0 0-.76.3c-.2.21-.3.48-.3.82 0 .34.1.6.3.81.2.2.45.31.76.31.3 0 .56-.1.76-.3Zm4.85-1.89H6.26v2.88h-.84v-2.88H4.16v-.7h3.36v.7Zm4.03 1.87c0 .32-.12.57-.36.74-.24.18-.6.27-1.07.27H8.29v-3.59h1.75c.44 0 .78.08 1.03.25a.77.77 0 0 1 .37.68c0 .17-.05.34-.15.48a.98.98 0 0 1-.4.31c.44.14.66.43.66.86ZM9.1 33.64h.88c.43 0 .65-.15.65-.45 0-.3-.22-.43-.65-.43H9.1v.88Zm1.65 1.03c0-.16-.05-.28-.16-.36a.93.93 0 0 0-.5-.11h-1v.92h.97c.46 0 .69-.15.69-.45Zm5.21-.47h-2.8a1 1 0 0 0 .38.63c.2.16.46.23.77.23.4 0 .72-.13.97-.39l.45.52c-.16.2-.37.35-.6.44-.25.1-.53.14-.84.14a2.2 2.2 0 0 1-1.04-.23 1.7 1.7 0 0 1-.7-.66c-.16-.28-.24-.6-.24-.95s.08-.66.24-.94c.15-.27.38-.5.66-.65.28-.16.6-.24.95-.24s.66.08.94.23c.27.15.5.38.64.65.2.38.28.8.22 1.22Zm-2.48-1.19a1 1 0 0 0-.33.63h2.03a1 1 0 0 0-.33-.63 1 1 0 0 0-.69-.24 1 1 0 0 0-.68.24Zm6.29-.16H18.5v2.88h-.84v-2.88H16.4v-.7h3.36v.7ZM21 35.54a1.75 1.75 0 0 1-.94-1.61 1.73 1.73 0 0 1 .94-1.59c.3-.16.65-.25 1-.24.35 0 .67.07.93.22.27.14.47.35.6.61l-.64.38a1.04 1.04 0 0 0-.9-.5c-.3 0-.57.1-.77.31-.2.2-.31.47-.31.82 0 .34.1.6.3.81.2.2.47.3.79.3.17.01.35-.03.5-.11.16-.1.3-.22.39-.38l.64.38c-.13.26-.34.48-.6.62-.27.15-.58.22-.93.22a2.2 2.2 0 0 1-1-.24Zm6.24-2.69H26v2.88h-.84v-2.88H23.9v-.7h3.35v.7Zm4.04 1.87c0 .32-.12.57-.36.74-.24.18-.6.27-1.07.27h-1.83v-3.59h1.75c.44 0 .78.08 1.03.25a.77.77 0 0 1 .36.68c0 .17-.04.34-.14.48a.98.98 0 0 1-.4.31c.44.14.66.43.66.86Zm-2.46-1.08h.88c.43 0 .65-.15.65-.45 0-.3-.22-.43-.65-.43h-.88v.88Zm1.65 1.03a.44.44 0 0 0-.16-.36.93.93 0 0 0-.5-.11h-1v.92h.97c.46 0 .69-.15.69-.45Zm5.21-.47h-2.8a1 1 0 0 0 .38.63c.2.16.46.23.77.23.4 0 .72-.13.97-.39l.45.52c-.16.2-.37.35-.61.44-.25.1-.52.14-.83.14a2.2 2.2 0 0 1-1.04-.23 1.7 1.7 0 0 1-.7-.66c-.16-.28-.24-.6-.24-.95s.08-.66.24-.94c.15-.27.38-.5.66-.65.28-.16.6-.24.95-.24s.66.08.94.23c.27.15.5.38.64.65.2.38.28.8.22 1.22Zm-2.48-1.19a1 1 0 0 0-.34.63h2.04a1 1 0 0 0-.33-.63 1 1 0 0 0-.69-.24 1 1 0 0 0-.68.24Zm3.58-.87h.84v1.46h1.81v-1.46h.84v3.59h-.84V34.3h-1.8v1.42h-.85v-3.59Zm4.78 0h.84v1.46h1.8v-1.46h.85v3.59h-.84V34.3h-1.8v1.42h-.85v-3.59Zm7.57 1.5c.24.2.36.49.36.86 0 .38-.13.7-.4.92-.26.21-.64.32-1.13.31h-1.62v-3.59h.84v1.18h.9c.46 0 .81.1 1.05.31Zm-.68 1.32c.13-.1.2-.26.2-.47 0-.21-.06-.35-.19-.44a.98.98 0 0 0-.57-.15h-.71v1.2l.7.02c.25 0 .44-.05.57-.16Zm1.5-2.82h.85v3.58h-.84v-3.58Zm2.14 0h.84v2.36l1.98-2.36h.76v3.59h-.84v-2.36l-1.97 2.36h-.77v-3.59Zm.9-.67a.96.96 0 0 1-.28-.73h.55c0 .16.06.29.15.38.1.1.24.14.4.14.18 0 .31-.05.41-.14.1-.1.16-.22.16-.38h.57c0 .32-.1.56-.3.73-.18.17-.46.25-.83.25-.36 0-.63-.08-.83-.25Zm8.66 2.7c.12.13.18.3.18.5 0 .22-.07.42-.22.58-.15.17-.35.3-.61.4-.26.09-.56.14-.89.14a3.5 3.5 0 0 1-.81-.1 2.7 2.7 0 0 1-.72-.28l.24-.62a2.78 2.78 0 0 0 1.25.3c.23.02.46-.03.66-.12.16-.1.24-.21.24-.36a.36.36 0 0 0-.18-.32.99.99 0 0 0-.53-.12h-.7v-.56h.64c.2 0 .37-.04.5-.1a.33.33 0 0 0 .17-.31c0-.13-.07-.23-.21-.3a1.26 1.26 0 0 0-.6-.12c-.35 0-.73.08-1.13.26l-.22-.62c.48-.22.95-.33 1.43-.33.3 0 .57.04.82.13.24.08.43.2.56.35a.75.75 0 0 1 .05.97.97.97 0 0 1-.44.32c.22.07.4.17.52.3Zm3.77-1.69c.28.25.42.64.42 1.15v2.1h-.8v-.44a.98.98 0 0 1-.43.36 1.7 1.7 0 0 1-.69.13c-.27 0-.5-.05-.7-.14a1.2 1.2 0 0 1-.47-.38.97.97 0 0 1-.16-.56c0-.32.11-.58.35-.77.24-.2.62-.3 1.14-.3H65v-.05a.74.74 0 0 0-.22-.57c-.15-.14-.38-.2-.67-.2a1.79 1.79 0 0 0-1.09.35l-.33-.61c.2-.15.43-.26.68-.33a3 3 0 0 1 .84-.11c.53 0 .93.12 1.21.38Zm-.77 2.54c.17-.1.28-.23.35-.41v-.42h-.87c-.48 0-.72.16-.72.48 0 .15.06.27.18.36.12.09.29.13.5.13.22 0 .4-.05.57-.14Zm7.67-.3c0 .32-.12.57-.36.74-.24.18-.6.27-1.07.27h-1.83v-3.59h1.75c.44 0 .78.08 1.03.25a.77.77 0 0 1 .37.68c0 .17-.05.34-.15.48a.98.98 0 0 1-.4.31c.44.14.66.43.66.86Zm-2.46-1.08h.88c.43 0 .65-.15.65-.45 0-.3-.22-.43-.65-.43h-.88v.88Zm1.65 1.03c0-.16-.05-.28-.16-.36a.93.93 0 0 0-.5-.11h-1v.92h.97c.46 0 .69-.15.69-.45Zm4.42-2.19c.28.25.42.64.42 1.15v2.1h-.8v-.44a.98.98 0 0 1-.43.36 1.7 1.7 0 0 1-.69.13c-.27 0-.5-.05-.7-.14a1.2 1.2 0 0 1-.47-.38.97.97 0 0 1-.16-.56c0-.32.12-.58.36-.77.24-.2.61-.3 1.13-.3h.93v-.05a.74.74 0 0 0-.23-.57c-.15-.14-.37-.2-.67-.2a1.79 1.79 0 0 0-1.09.35l-.33-.61c.2-.15.44-.26.68-.33a3 3 0 0 1 .84-.11c.53 0 .93.12 1.21.38Zm-.76 2.54c.16-.1.28-.23.34-.41v-.42h-.86c-.49 0-.73.16-.73.48 0 .15.06.27.18.36.13.09.3.13.5.13.22 0 .4-.05.57-.14Zm7.66-2.88v3.59h-5.28v-3.59h.84v2.88h1.4v-2.88h.83v2.88H82v-2.88h.83Zm6.76 0v3.59h-.84v-2.88H87v2.88h-.84v-3.59h3.43Zm1.92 3.4a1.7 1.7 0 0 1-.68-.66 1.8 1.8 0 0 1-.25-.95 1.76 1.76 0 0 1 .93-1.59c.29-.16.61-.24.98-.24.36 0 .7.08.98.24.28.15.52.37.68.65a1.89 1.89 0 0 1 0 1.89c-.16.28-.39.5-.68.66-.3.15-.62.23-.98.23-.37 0-.7-.08-.98-.23Zm1.74-.8c.2-.2.3-.47.3-.81 0-.34-.1-.6-.3-.81-.2-.2-.46-.31-.76-.31-.31 0-.57.1-.77.3-.2.21-.3.48-.3.82 0 .34.1.6.3.81.2.2.46.31.77.31.3 0 .56-.1.76-.3Zm5.35-2.6v3.59h-.84v-2.88h-1.34l-.04.71c-.02.48-.06.87-.13 1.2-.06.32-.17.57-.33.75a.78.78 0 0 1-.63.28 1.8 1.8 0 0 1-.46-.07l.04-.7a.8.8 0 0 0 .16.02.4.4 0 0 0 .38-.21c.08-.14.14-.3.17-.5l.06-.8.06-1.39h2.9Z" />
    <path fill="var(--logo-icon-line-color)" d="M102.27 31.72H160v4.4h-57.73v-4.4Z" />
  </symbol>
  <symbol id="icon-next" viewBox="0 0 16 16" fill="none">
    <path stroke-width="2" d="m9.83 3.17 4.66 4.66-4.66 4.66M0 8h14" />
  </symbol>
  <symbol id="icon-office" viewBox="0 0 24 24" fill="none">
    <path stroke-linecap="round" stroke-linejoin="round" stroke-width="1.5"
      d="M14 22V8m0 14H8c-2.8 0-4.2 0-5.1-.9C2 20.2 2 18.8 2 16V8c0-2.8 0-4.2.9-5.1C3.8 2 5.2 2 8 2s4.2 0 5.1.9c.9.9.9 2.3.9 5.1m0 14h4c1.9 0 2.8 0 3.4-.6.6-.6.6-1.5.6-3.4v-6c0-1.9 0-2.8-.6-3.4C20.8 8 20 8 18 8h-4m-7.5 3h-1m5 0h-1m-3-4h-1m1 8h-1m5-8h-1m1 8h-1m9 0h-1m1-4h-1" />
  </symbol>
  <symbol id="icon-playground" viewBox="0 0 24 24" stroke="none">
    <path fill-rule="evenodd" clip-rule="evenodd"
      d="M8.0827 1.0829a.8.8 0 0 0-1.1116-.0017L1.7173 6.141c-.5186.4995-.1651 1.3762.555 1.3762h.0022V21.743h-.2503a.7.7 0 1 0 0 1.4h.8503a.8.8 0 0 0 .8-.8v-3.1743H4.788v3.2743a.7.7 0 1 0 1.4 0v-.7606h2.6083v.7606a.7.7 0 1 0 1.4 0v-3.2743H11.31v3.1743a.8.8 0 0 0 .8.8h.8848a.7.7 0 1 0 0-1.4H12.71v-4.6081h.763a.3002.3002 0 0 1 .2495.1334l3.4185 5.1188a1.7001 1.7001 0 0 0 1.4138.7559h2.4245c.9389 0 1.7-.7611 1.7-1.7v-.9721c0-.9389-.7611-1.7-1.7-1.7h-1.4471a.2998.2998 0 0 1-.2497-.1338l-3.4011-5.1092a1.6999 1.6999 0 0 0-1.4151-.7579H12.71V7.5172h.0379c.7188 0 1.0729-.8743.5567-1.3745L8.0827 1.083ZM3.6745 15.153V7.5172H11.31v7.6358H3.6745ZM7.5248 2.4916l3.7418 3.6257H3.7602l3.7646-3.6257Zm5.9483 13.2432h-.763v-1.5649h1.7563a.3.3 0 0 1 .2497.1337l3.4011 5.1092a1.7 1.7 0 0 0 1.4151.758h1.4471a.3.3 0 0 1 .3.3v.9721a.3.3 0 0 1-.3.3h-2.4245a.2997.2997 0 0 1-.2495-.1334l-3.4186-5.1188a1.7 1.7 0 0 0-1.4137-.7559Zm-3.2767.8182h1.1137v1.2156h-1.1137V16.553Zm-1.4 0v1.2156H6.1881V16.553h2.6083Zm-2.6083 3.7293v-1.1137h2.6083v1.1137H6.1881Zm-1.4-3.7293v1.2156H3.6745V16.553H4.788Zm3.9474-5.1127c0 .6388-.5178 1.1566-1.1566 1.1566s-1.1566-.5178-1.1566-1.1566.5178-1.1567 1.1566-1.1567 1.1566.5179 1.1566 1.1567Zm1.4 0c0 1.412-1.1446 2.5566-2.5566 2.5566s-2.5566-1.1446-2.5566-2.5566 1.1446-2.5567 2.5566-2.5567 2.5566 1.1447 2.5566 2.5567Z" />
  </symbol>
  <symbol id="icon-prev" viewBox="0 0 16 16" fill="none">
    <path stroke-width="2" d="M6.17 3.17 1.51 7.83l4.66 4.66M16 8H2" />
  </symbol>
  <symbol id="icon-quote" viewBox="0 0 80 80" stroke="none">
    <path
      d="M21.3 13.6c-6.5 0-11.7 5.4-11.7 12s5.2 12 11.7 12c11.6 0 3.8 23.2-11.7 23.2v5.6c27.8 0 38.6-52.8 11.7-52.8Zm33.6 0c-6.5 0-11.7 5.4-11.7 12s5.2 12 11.7 12c11.6 0 3.9 23.2-11.7 23.2v5.6c27.8 0 38.6-52.8 11.7-52.8Z" />
  </symbol>
  <symbol id="icon-restaurant" viewBox="0 0 24 24" fill="none">
    <path stroke-linecap="round" stroke-width="1.5" stroke-linejoin="round"
      d="M1.5 9.75 3 18m-1.5 6L3 18h3a1.5 1.5 0 0 1 1.5 1.5V24m15-14.25L21 18m1.5 6L21 18h-3a1.5 1.5 0 0 0-1.5 1.5V24M12 13.5V24M6.75 13.5h10.5" />
    <path stroke-linecap="round" stroke-width="1.5" d="m19.68 6.2-7.14-4.64a1 1 0 0 0-1.08 0L4.32 6.2m8.24-.02h-1.13" />
  </symbol>
  <symbol id="icon-samples" viewBox="0 0 24 24" fill="none">
    <path stroke-linecap="round" stroke-linejoin="round" stroke-width="1.4"
      d="M8.88 21.25h9.87a2.5 2.5 0 0 0 2.5-2.5v-3.63a2.5 2.5 0 0 0-2.5-2.48h-1.27m-6.1 6.09 6.1-6.11 1.87-1.87a2.49 2.49 0 0 0 0-3.53l-2.57-2.57a2.49 2.49 0 0 0-3.53 0l-1.87 1.87" />
    <path stroke-linecap="round" stroke-linejoin="round" stroke-width="1.4"
      d="M8.88 2.75H5.25a2.5 2.5 0 0 0-2.5 2.5v13.5a2.5 2.5 0 0 0 2.5 2.5h3.63a2.5 2.5 0 0 0 2.5-2.5V5.25a2.5 2.5 0 0 0-2.5-2.5Z" />
    <path stroke-linecap="round" stroke-linejoin="round" stroke-width="1.4" d="M7.07 18.6a1.6 1.6 0 1 0 0-3.2 1.6 1.6 0 0 0 0 3.2Z" />
  </symbol>
  <symbol id="icon-school" viewBox="0 0 24 24" fill="none">
    <path stroke-linecap="round" stroke-linejoin="round" stroke-width="1.5" d="M12.7188 8.7656v3.7931l-2.875.8788-2.875-.8788v-3.793" />
    <path stroke-linecap="round" stroke-linejoin="round" stroke-width="1.5"
      d="m15.5938 7.6875-5.75-2.1563-5.75 2.1563 5.75 2.1563 5.75-2.1563Zm-11.5 0v2.875m18.2265-4.4971c-1.2535 1.8927-4.0068 1.356-5.0792 3.0293a2.6453 2.6453 0 0 0-.3553 1.9923 2.6451 2.6451 0 0 0 1.1574 1.6599 2.6453 2.6453 0 0 0 1.9923.3554 2.6453 2.6453 0 0 0 1.6599-1.1575 6.2287 6.2287 0 0 0 .6249-5.8794Z" />
    <path stroke-linecap="round" stroke-linejoin="round" stroke-width="1.5"
      d="M11.8224 22.473a1.9527 1.9527 0 0 1-.8461-2.1022 1.9496 1.9496 0 0 1 .343-.723l5.9713-7.6312a2.657 2.657 0 0 0 1.7749 1.1165l-4.4668 8.6135a1.9543 1.9543 0 0 1-2.0283 1.0105 1.9532 1.9532 0 0 1-.748-.2841Zm-3.4161-.4105h-5.75a1.4378 1.4378 0 0 1-1.4375-1.4375V2.6562a1.4375 1.4375 0 0 1 1.4374-1.4375H17.75a1.4377 1.4377 0 0 1 1.4375 1.4376v2.1562" />
  </symbol>
  <symbol id="icon-search" viewBox="0 0 40 40" fill="none">
    <path stroke-width="1.6" d="M24.5 24.5 29 29" />
    <circle cx="19" cy="19" r="7.2" stroke-width="1.6" />
  </symbol>
  <symbol id="icon-sheet" viewBox="0 0 24 24" fill="none">
    <path stroke-width="1.5"
      d="M3 10c0-3.77 0-5.66 1.17-6.83S7.23 2 11 2h2c3.77 0 5.66 0 6.83 1.17S21 6.23 21 10v4c0 3.77 0 5.66-1.17 6.83S16.77 22 13 22h-2c-3.77 0-5.66 0-6.83-1.17S3 17.77 3 14v-4Z" />
    <path stroke-linecap="round" stroke-width="1.5" d="M7.5 12h9m-9-4.74h9m-9 9.48h5.63" />
  </symbol>
  <symbol id="icon-tickets" viewBox="0 0 24 24" fill="none">
    <path stroke-linejoin="round" stroke-width="1.5" stroke-linecap="round"
      d="M7.37 2.655a2.902 2.902 0 0 1-2.71-.664c-.354-.322-.839-.524-1.292-.372a31.34 31.34 0 0 0-.96.338c-1.076.4-1.609 1.459-1.379 2.584.292 1.421.84 3.812 1.867 7.644.356 1.33.676 2.48.96 3.474" />
    <path stroke-linejoin="round" stroke-width="1.5"
      d="M9.961 2.69c.363-1.09 1.354-1.74 2.485-1.548.301.05.645.114 1.035.193.449.092.754.49.887.928a2.903 2.903 0 0 0 2.026 1.963 2.903 2.903 0 0 0 2.737-.687c.334-.312.797-.505 1.231-.36.379.127.708.244.994.35 1.076.4 1.609 1.458 1.379 2.583-.291 1.421-.84 3.812-1.867 7.645-1.027 3.832-1.747 6.177-2.206 7.554-.363 1.089-1.353 1.738-2.485 1.547-.3-.05-.644-.114-1.036-.194-.448-.09-.753-.49-.886-.927a2.903 2.903 0 0 0-2.027-1.964 2.903 2.903 0 0 0-2.736.688c-.334.312-.798.505-1.232.36a31.793 31.793 0 0 1-.993-.35c-1.076-.4-1.608-1.458-1.378-2.583.29-1.421.84-3.812 1.867-7.645C8.782 6.411 9.503 4.066 9.96 2.69Z" />
    <path stroke-linejoin="round" stroke-width="1.5"
      d="M15.75 8.347a.5.5 0 0 0-.858-.23l-1.444 1.58-2.105-.142a.5.5 0 0 0-.48.726l.992 1.949-.827 2.043a.5.5 0 0 0 .563.678l2.04-.416 1.56 1.38a.5.5 0 0 0 .826-.305l.306-2.183 1.833-1.192a.5.5 0 0 0-.053-.868l-1.894-.93-.46-2.09Z" />
  </symbol>
  <symbol id="icon-tools" viewBox="0 0 24 24" stroke="none">
    <path
      d="m3.9375 2.0625-.4223.3982-1.0545 1.0545-.3982.4223.3045.492 1.5705 2.625.2107.375h2.2043l3 2.9767c-2.6805 2.6926-6.0907 6.114-6.2107 6.2348-1.1753 1.1745-1.1775 3.099.0225 4.2187 1.1722 1.1566 3.0824 1.1865 4.1962 0l.0225-.0239L12 16.1955l4.641 4.6635.0698.0472c1.1775 1.1101 3.0502 1.125 4.1489-.0472v-.0225h.0225c1.149-1.1753 1.161-3.0855-.0225-4.1962l-.0239-.0225-3.9136-3.8911c2.6333-.2459 4.6958-2.4697 4.734-5.1562h.0233c.003-.015 0-.0323 0-.0473V7.5c.0735-.867-.114-1.6965-.5625-2.4143l-.5145-.7957-3.4928 3.492-1.0544-1.1018 3.5625-3.5625-1.0313-.4215A5.25 5.25 0 0 0 16.5 2.25c-2.883 0-5.25 2.367-5.25 5.25 0 .3135.0675.5858.117.867-.3277.3285-.5737.5977-.9608.9847L7.4295 6.375V4.1482l-.375-.2107-2.625-1.5705-.492-.3045ZM16.5 3.75c.105 0 .1785.0615.2812.0705l-2.8357 2.8357.5153.5393 2.1097 2.1795.5153.5392 2.9767-2.9767c.015.1725.138.2985.117.492V7.5c0 2.0655-1.6845 3.75-3.75 3.75-.2752 0-.609-.0645-.984-.141l-.399-.0698-.2812.2813-8.46 8.484h-.024v.024c-.5325.5827-1.4648.597-2.0858-.024v-.0233h-.024c-.5827-.5324-.597-1.4647.024-2.0857.2843-.285 5.7885-5.8365 8.484-8.5313l.3052-.3044-.1177-.4223A4.4994 4.4994 0 0 1 12.75 7.5c0-2.0655 1.6845-3.75 3.75-3.75Zm-12.3285.1875 1.758 1.0785v.75l-.1635.1635h-.75L3.9375 4.1723l.234-.2348Zm10.9688 9.117 4.665 4.641v.0233h.0225c.5835.5324.5977 1.4647-.0225 2.0857h-.0241v.024c-.5324.5827-1.4647.597-2.0857-.024l-4.641-4.6635 2.0858-2.0865Z" />
  </symbol>
  <symbol id="icon-truck" viewBox="0 0 24 24">
    <path stroke="none"
      d="M2 3v-.75a.75.75 0 0 0-.75.75H2Zm11 0h.75a.75.75 0 0 0-.75-.75V3Zm0 6v-.75a.75.75 0 0 0-.75.75H13ZM2 3.75h11v-1.5H2v1.5ZM12.25 3v16h1.5V3h-1.5Zm-9.5 14V3h-1.5v14h1.5ZM13 9.75h5v-1.5h-5v1.5ZM21.25 13v4h1.5v-4h-1.5Zm-7.5 6V9h-1.5v10h1.5Zm5.134.884a1.251 1.251 0 0 1-1.768 0l-1.06 1.06a2.75 2.75 0 0 0 3.889 0l-1.061-1.06Zm-1.768-1.768a1.251 1.251 0 0 1 1.768 0l1.06-1.06a2.75 2.75 0 0 0-3.889 0l1.061 1.06ZM6.884 19.884a1.251 1.251 0 0 1-1.768 0l-1.06 1.06a2.75 2.75 0 0 0 3.889 0l-1.061-1.06Zm-1.768-1.768a1.251 1.251 0 0 1 1.768 0l1.06-1.06a2.75 2.75 0 0 0-3.889 0l1.061 1.06Zm13.768 0c.244.244.366.563.366.884h1.5c0-.703-.269-1.408-.805-1.945l-1.061 1.061Zm.366.884c0 .321-.122.64-.366.884l1.061 1.06A2.737 2.737 0 0 0 20.75 19h-1.5ZM16 18.25h-3v1.5h3v-1.5Zm1.116 1.634A1.24 1.24 0 0 1 16.75 19h-1.5c0 .703.269 1.408.805 1.945l1.061-1.061ZM16.75 19c0-.321.122-.64.366-.884l-1.061-1.06A2.737 2.737 0 0 0 15.25 19h1.5Zm-11.634.884A1.24 1.24 0 0 1 4.75 19h-1.5c0 .703.269 1.408.805 1.945l1.061-1.061ZM4.75 19c0-.321.122-.64.366-.884l-1.06-1.06A2.74 2.74 0 0 0 3.25 19h1.5Zm8.25-.75H8v1.5h5v-1.5Zm-6.116-.134c.244.244.366.563.366.884h1.5c0-.703-.269-1.408-.805-1.945l-1.061 1.061ZM7.25 19c0 .321-.122.64-.366.884l1.06 1.06A2.74 2.74 0 0 0 8.75 19h-1.5Zm14-2c0 .69-.56 1.25-1.25 1.25v1.5A2.75 2.75 0 0 0 22.75 17h-1.5ZM18 9.75A3.25 3.25 0 0 1 21.25 13h1.5A4.75 4.75 0 0 0 18 8.25v1.5ZM1.25 17A2.75 2.75 0 0 0 4 19.75v-1.5c-.69 0-1.25-.56-1.25-1.25h-1.5Z" />
    <path fill="none" stroke-linecap="round" stroke-linejoin="round" stroke-width="1.5" d="M2 8h3m-3 4h5" />
  </symbol>
  <symbol id="icon-up" viewBox="0 0 17 16" fill="none">
    <path stroke-width="1.6" d="M4.43 10.74 8.67 6.5l4.24 4.24" />
  </symbol>
  <symbol id="icon-vkontakte" viewBox="0 0 22 12" stroke="none">
    <path fill-rule="evenodd" clip-rule="evenodd"
      d="M10.335 11.932h1.25s.379-.042.572-.25c.177-.19.171-.55.171-.55s-.024-1.678.755-1.925c.768-.244 1.755 1.622 2.8 2.34.79.543 1.391.424 1.391.424l2.796-.039s1.462-.09.768-1.24c-.056-.094-.403-.85-2.078-2.405-1.753-1.626-1.518-1.363.593-4.177 1.286-1.714 1.8-2.76 1.64-3.208-.153-.427-1.1-.314-1.1-.314l-3.146.02s-.234-.033-.407.07c-.169.102-.278.339-.278.339S15.564 2.343 14.9 3.47c-1.402 2.38-1.962 2.505-2.191 2.357-.533-.344-.4-1.383-.4-2.122 0-2.306.35-3.267-.68-3.516-.343-.083-.595-.137-1.47-.146C9.036.032 8.086.047 7.548.31c-.358.175-.635.566-.466.588.208.028.679.127.928.467.323.44.312 1.425.312 1.425s.185 2.714-.433 3.052c-.424.231-1.006-.241-2.256-2.4A20.07 20.07 0 0 1 4.51 1.114s-.094-.228-.26-.35C4.048.616 3.767.569 3.767.569L.776.589S.326.6.162.795C.015.97.15 1.329.15 1.329s2.342 5.478 4.993 8.238c2.431 2.531 5.192 2.365 5.192 2.365Z" />
  </symbol>
  <symbol id="icon-youtube" viewBox="0 0 17 12" stroke="none">
    <path
      d="M16.257 2.913A2.428 2.428 0 0 0 13.83.484H2.442A2.428 2.428 0 0 0 .016 2.913v6.512a2.428 2.428 0 0 0 2.426 2.428H13.83a2.428 2.428 0 0 0 2.427-2.428V2.913ZM6.512 8.916V2.8l4.638 3.058-4.638 3.058Z" />
  </symbol>
</svg>
